{"asset":{"version":"2.0","generator":"Unity 2022.3.55f1 glTFast 5.2.0"},"nodes":[{"name":"Image (5)","mesh":0,"translation":[513.810059,-186.3754,1.397],"scale":[1.034077,0.7573676,1]},{"name":"Image (3)","mesh":1,"translation":[515.098,-186.3754,1.397],"scale":[1.10756958,0.7573676,1]},{"name":"Image (6)","mesh":2,"translation":[513.817,-187.2434,1.397],"scale":[1.04073989,0.7573676,1]},{"name":"Image (2)","mesh":3,"translation":[515.036,-187.2434,1.397],"scale":[1.14128733,0.7573676,1]},{"name":"Image (7)","mesh":4,"translation":[519.686035,-186.1624,1.397],"scale":[1.172986,0.7573676,1]},{"name":"Image (4)","mesh":5,"translation":[518.4,-186.1624,1.397],"scale":[1.20535767,0.7573676,1]},{"name":"Image (1)","mesh":6,"translation":[518.4,-187.2434,1.397],"scale":[1.302069,0.7573676,1]},{"name":"Image","mesh":7,"translation":[517.07605,-187.2434,1.397],"scale":[0.6730082,0.7573676,1]},{"name":"Quad","mesh":8,"translation":[516.64,-187.2434,1.5],"scale":[1.89627862,1.41134048,1]},{"name":"Canvas","children":[0,1,2,3,4,5,6,7,8],"translation":[-516.600037,188.2,0]}],"extensionsRequired":["KHR_materials_unlit"],"extensionsUsed":["KHR_materials_unlit"],"buffers":[{"uri":"Canvas.bin","byteLength":204}],"bufferViews":[{"buffer":0,"byteLength":12},{"buffer":0,"byteLength":192,"byteOffset":12,"byteStride":48}],"accessors":[{"bufferView":1,"componentType":5126,"count":4,"type":"VEC3","max":[0.5,0.5,3.0616168E-17],"min":[-0.5,-0.5,-3.0616168E-17]},{"bufferView":1,"componentType":5126,"count":4,"type":"VEC3","byteOffset":12},{"bufferView":1,"componentType":5126,"count":4,"type":"VEC4","byteOffset":24},{"bufferView":1,"componentType":5126,"count":4,"type":"VEC2","byteOffset":40},{"bufferView":0,"componentType":5123,"count":6,"type":"SCALAR"}],"images":[{"name":"sidefolio-moonbeam-2.png","uri":"sidefolio-moonbeam-2.png","mimeType":"image/png"},{"name":"sidefolio-moonbeam.png","uri":"sidefolio-moonbeam.png","mimeType":"image/png"},{"name":"sidefolio-algochurn-2.png","uri":"sidefolio-algochurn-2.png","mimeType":"image/png"},{"name":"sidefolio-algochurn.png","uri":"sidefolio-algochurn.png","mimeType":"image/png"},{"name":"Techdivehub2.png","uri":"Techdivehub2.png","mimeType":"image/png"},{"name":"Techdivehub.png","uri":"Techdivehub.png","mimeType":"image/png"},{"name":"sidefolio-tailwindmasterkit-2.png","uri":"sidefolio-tailwindmasterkit-2.png","mimeType":"image/png"},{"name":"SiyaraTech_Round.png","uri":"SiyaraTech_Round.png","mimeType":"image/png"}],"materials":[{"name":"interview2","pbrMetallicRoughness":{"metallicFactor":0,"baseColorTexture":{"index":0}},"extensions":{"KHR_materials_unlit":{}}},{"name":"interview","pbrMetallicRoughness":{"metallicFactor":0,"baseColorTexture":{"index":1}},"extensions":{"KHR_materials_unlit":{}}},{"name":"Dashboard2","pbrMetallicRoughness":{"metallicFactor":0,"baseColorTexture":{"index":2}},"extensions":{"KHR_materials_unlit":{}}},{"name":"Dashboard","pbrMetallicRoughness":{"metallicFactor":0,"baseColorTexture":{"index":3}},"extensions":{"KHR_materials_unlit":{}}},{"name":"techdivehub2","pbrMetallicRoughness":{"metallicFactor":0,"baseColorTexture":{"index":4}},"extensions":{"KHR_materials_unlit":{}}},{"name":"techdivehub","pbrMetallicRoughness":{"metallicFactor":0,"baseColorTexture":{"index":5}},"extensions":{"KHR_materials_unlit":{}}},{"name":"Handdrawn","pbrMetallicRoughness":{"metallicFactor":0,"baseColorTexture":{"index":6}},"extensions":{"KHR_materials_unlit":{}}},{"name":"Siyaratech","pbrMetallicRoughness":{"metallicFactor":0,"baseColorTexture":{"index":7}},"extensions":{"KHR_materials_unlit":{}}},{"name":"Lit","pbrMetallicRoughness":{"baseColorFactor":[0.5,0.5,0.5,1],"metallicFactor":0,"roughnessFactor":0.5}}],"meshes":[{"name":"Quad","primitives":[{"attributes":{"POSITION":0,"NORMAL":1,"TANGENT":2,"TEXCOORD_0":3},"indices":4,"material":0}]},{"name":"Quad","primitives":[{"attributes":{"POSITION":0,"NORMAL":1,"TANGENT":2,"TEXCOORD_0":3},"indices":4,"material":1}]},{"name":"Quad","primitives":[{"attributes":{"POSITION":0,"NORMAL":1,"TANGENT":2,"TEXCOORD_0":3},"indices":4,"material":2}]},{"name":"Quad","primitives":[{"attributes":{"POSITION":0,"NORMAL":1,"TANGENT":2,"TEXCOORD_0":3},"indices":4,"material":3}]},{"name":"Quad","primitives":[{"attributes":{"POSITION":0,"NORMAL":1,"TANGENT":2,"TEXCOORD_0":3},"indices":4,"material":4}]},{"name":"Quad","primitives":[{"attributes":{"POSITION":0,"NORMAL":1,"TANGENT":2,"TEXCOORD_0":3},"indices":4,"material":5}]},{"name":"Quad","primitives":[{"attributes":{"POSITION":0,"NORMAL":1,"TANGENT":2,"TEXCOORD_0":3},"indices":4,"material":6}]},{"name":"Quad","primitives":[{"attributes":{"POSITION":0,"NORMAL":1,"TANGENT":2,"TEXCOORD_0":3},"indices":4,"material":7}]},{"name":"Quad","primitives":[{"attributes":{"POSITION":0,"NORMAL":1,"TANGENT":2,"TEXCOORD_0":3},"indices":4,"material":8}]}],"samplers":[{"wrapS":33071,"wrapT":33071}],"scene":0,"scenes":[{"name":"Canvas","nodes":[9]}],"textures":[{"source":0,"sampler":0},{"source":1,"sampler":0},{"source":2,"sampler":0},{"source":3,"sampler":0},{"source":4,"sampler":0},{"source":5,"sampler":0},{"source":6,"sampler":0},{"source":7,"sampler":0}]}