{"asset":{"version":"2.0","generator":"Unity 2022.3.55f1 glTFast 5.2.0"},"nodes":[{"name":"Image","mesh":0,"translation":[517.07605,-187.2434,1.397],"scale":[0.6730082,0.7573676,1]}],"extensionsRequired":["KHR_materials_unlit"],"extensionsUsed":["KHR_materials_unlit"],"buffers":[{"uri":"Image.bin","byteLength":204}],"bufferViews":[{"buffer":0,"byteLength":12},{"buffer":0,"byteLength":192,"byteOffset":12,"byteStride":48}],"accessors":[{"bufferView":1,"componentType":5126,"count":4,"type":"VEC3","max":[0.5,0.5,3.0616168E-17],"min":[-0.5,-0.5,-3.0616168E-17]},{"bufferView":1,"componentType":5126,"count":4,"type":"VEC3","byteOffset":12},{"bufferView":1,"componentType":5126,"count":4,"type":"VEC4","byteOffset":24},{"bufferView":1,"componentType":5126,"count":4,"type":"VEC2","byteOffset":40},{"bufferView":0,"componentType":5123,"count":6,"type":"SCALAR"}],"images":[{"name":"SiyaraTech_Round.png","uri":"SiyaraTech_Round.png","mimeType":"image/png"}],"materials":[{"name":"Siyaratech","pbrMetallicRoughness":{"metallicFactor":0,"baseColorTexture":{"index":0}},"extensions":{"KHR_materials_unlit":{}}}],"meshes":[{"name":"Quad","primitives":[{"attributes":{"POSITION":0,"NORMAL":1,"TANGENT":2,"TEXCOORD_0":3},"indices":4,"material":0}]}],"samplers":[{"wrapS":33071,"wrapT":33071}],"scene":0,"scenes":[{"name":"Image","nodes":[0]}],"textures":[{"source":0,"sampler":0}]}